<?xml version="1.0" encoding="utf-8"?>
<!-- Generator: Adobe Illustrator 18.0.0, SVG Export Plug-In . SVG Version: 6.00 Build 0)  -->
<!DOCTYPE svg PUBLIC "-//W3C//DTD SVG 1.1//EN" "http://www.w3.org/Graphics/SVG/1.1/DTD/svg11.dtd">
<svg version="1.1" id="图层_1" xmlns="http://www.w3.org/2000/svg" xmlns:xlink="http://www.w3.org/1999/xlink" x="0px" y="0px"
	 viewBox="0 0 1920 683" enable-background="new 0 0 1920 683" xml:space="preserve">
<rect x="0" y="-53.9" display="none" fill="#1F2227" stroke="#231815" stroke-miterlimit="10" width="1920" height="800"/>
<rect x="558.3" y="477.5" fill="none" stroke="#42464C" stroke-miterlimit="10" width="98" height="132"/>
<path fill="none" stroke="#42464C" stroke-miterlimit="10" d="M665.3,624.5c0,3.3-2.7,6-6,6h-103c-3.3,0-6-2.7-6-6v-149
	c0-3.3,2.7-6,6-6h103c3.3,0,6,2.7,6,6V624.5z"/>
<circle fill="none" stroke="#42464C" stroke-miterlimit="10" cx="608.8" cy="619.7" r="4.3"/>
<rect x="1288.3" y="519.5" fill="none" stroke="#42464C" stroke-miterlimit="10" width="45" height="74"/>
<path fill="none" stroke="#42464C" stroke-miterlimit="10" d="M1337.3,604.5c0,3.3-2.7,6-6,6h-42c-3.3,0-6-2.7-6-6v-88
	c0-3.3,2.7-6,6-6h42c3.3,0,6,2.7,6,6V604.5z"/>
<circle fill="none" stroke="#42464C" stroke-miterlimit="10" cx="1310.5" cy="602.4" r="3.8"/>
<path fill="none" stroke="#42464C" stroke-miterlimit="10" d="M1317.3,515c0,0.3-0.2,0.5-0.5,0.5h-14c-0.3,0-0.5-0.2-0.5-0.5l0,0
	c0-0.3,0.2-0.5,0.5-0.5h14C1317.1,514.5,1317.3,514.7,1317.3,515L1317.3,515z"/>
<circle fill="none" stroke="#42464C" stroke-miterlimit="10" stroke-dasharray="6,8,6,8,6,8" cx="607.7" cy="550.3" r="111.1"/>
<path fill="none" stroke="#42464C" stroke-miterlimit="10" d="M1094.3,462.5c0,3.3-2.7,6-6,6h-256c-3.3,0-6-2.7-6-6v-173
	c0-3.3,2.7-6,6-6h256c3.3,0,6,2.7,6,6V462.5z"/>
<rect x="940.3" y="468.5" fill="none" stroke="#42464C" stroke-miterlimit="10" width="39" height="21"/>
<path fill="none" stroke="#42464C" stroke-miterlimit="10" d="M1012.3,493.2c0,1.8-1.5,3.3-3.3,3.3h-98.3c-1.8,0-3.3-1.5-3.3-3.3
	v-0.3c0-1.8,1.5-3.3,3.3-3.3h98.3c1.8,0,3.3,1.5,3.3,3.3V493.2z"/>
<path fill="none" stroke="#42464C" stroke-miterlimit="10" d="M1088,468.5H832.4c-3.6,0-6.1-3.2-6.1-6.7v-25.3h268V462
	C1094.3,465.4,1091.5,468.5,1088,468.5z"/>
<circle fill="none" stroke="#42464C" stroke-miterlimit="10" cx="960.1" cy="452.4" r="5"/>
<path fill="none" stroke="#42464C" stroke-miterlimit="10" d="M1060.9,476.3c-12,0-21.8,8.2-21.8,18.2h43.6
	C1082.7,484.5,1073,476.3,1060.9,476.3z"/>
<path fill="none" stroke="#42464C" stroke-miterlimit="10" d="M1062.3,488.2c0,0.7-0.6,1.3-1.3,1.3h-0.4c-0.7,0-1.3-0.6-1.3-1.3
	v-9.4c0-0.7,0.6-1.3,1.3-1.3h0.4c0.7,0,1.3,0.6,1.3,1.3V488.2z"/>
<circle fill="none" stroke="#42464C" stroke-miterlimit="10" stroke-dasharray="6,8,6,8,6,8" cx="960.4" cy="390" r="196.1"/>
<circle fill="none" stroke="#42464C" stroke-miterlimit="10" stroke-dasharray="6,8,6,8,6,8" cx="1348" cy="139.1" r="129.3"/>
<circle fill="none" stroke="#42464C" stroke-miterlimit="10" stroke-dasharray="6,8,6,8,6,8" cx="608.1" cy="143.5" r="67.7"/>
<circle fill="none" stroke="#42464C" stroke-miterlimit="10" stroke-dasharray="6,8,6,8,6,8" cx="1311.4" cy="559.8" r="77.2"/>
<line fill="none" stroke="#42464C" stroke-miterlimit="10" stroke-dasharray="6,8,6,8,6,8" x1="696.1" y1="483" x2="773.1" y2="448.1"/>
<line fill="none" stroke="#42464C" stroke-miterlimit="10" stroke-dasharray="6,8,6,8,6,8" x1="1143.1" y1="461.3" x2="1239.4" y2="520.3"/>
<line fill="none" stroke="#42464C" stroke-miterlimit="10" stroke-dasharray="6,8,6,8,6,8" x1="668.2" y1="176.3" x2="799.7" y2="277.6"/>
<line fill="none" stroke="#42464C" stroke-miterlimit="10" stroke-dasharray="6,8,6,8,6,8" x1="1128.7" y1="289.3" x2="1236.3" y2="211.2"/>
<path fill="none" stroke="#42464C" stroke-miterlimit="10" d="M652.3,118.5h-88V115c0-3.2,2.6-5.5,5.9-5.5h76.1
	c3.3,0,6.1,2.4,6.1,5.7V118.5z"/>
<rect x="564.3" y="118.5" fill="none" stroke="#42464C" stroke-miterlimit="10" width="88" height="63"/>
<rect x="575.3" y="138.5" fill="none" stroke="#42464C" stroke-miterlimit="10" width="5" height="5"/>
<rect x="583.3" y="138.5" fill="none" stroke="#42464C" stroke-miterlimit="10" width="60" height="5"/>
<rect x="575.3" y="148.5" fill="none" stroke="#42464C" stroke-miterlimit="10" width="5" height="5"/>
<rect x="583.3" y="148.5" fill="none" stroke="#42464C" stroke-miterlimit="10" width="60" height="5"/>
<rect x="575.3" y="157.5" fill="none" stroke="#42464C" stroke-miterlimit="10" width="5" height="5"/>
<rect x="583.3" y="157.5" fill="none" stroke="#42464C" stroke-miterlimit="10" width="60" height="5"/>
<circle fill="none" stroke="#42464C" stroke-miterlimit="10" cx="571.4" cy="113.9" r="1.9"/>
<circle fill="none" stroke="#42464C" stroke-miterlimit="10" cx="579.1" cy="113.9" r="1.9"/>
<circle fill="none" stroke="#42464C" stroke-miterlimit="10" cx="586.7" cy="113.9" r="1.9"/>
<rect x="1275.3" y="83.5" fill="none" stroke="#42464C" stroke-miterlimit="10" width="100" height="135"/>
<line fill="none" stroke="#42464C" stroke-miterlimit="10" x1="1284.8" y1="98.5" x2="1365.8" y2="98.5"/>
<line fill="none" stroke="#42464C" stroke-miterlimit="10" x1="1284.8" y1="112.5" x2="1365.8" y2="112.5"/>
<line fill="none" stroke="#42464C" stroke-miterlimit="10" x1="1284.8" y1="125.5" x2="1365.8" y2="125.5"/>
<line fill="none" stroke="#42464C" stroke-miterlimit="10" x1="1284.8" y1="139.5" x2="1365.8" y2="139.5"/>
<line fill="none" stroke="#42464C" stroke-miterlimit="10" x1="1284.8" y1="153.5" x2="1365.8" y2="153.5"/>
<line fill="none" stroke="#42464C" stroke-miterlimit="10" x1="1284.8" y1="166.5" x2="1365.8" y2="166.5"/>
<line fill="none" stroke="#42464C" stroke-miterlimit="10" x1="1284.8" y1="179.5" x2="1365.8" y2="179.5"/>
<line fill="none" stroke="#42464C" stroke-miterlimit="10" x1="1284.8" y1="193.5" x2="1365.8" y2="193.5"/>
<line fill="none" stroke="#42464C" stroke-miterlimit="10" x1="1284.8" y1="206.5" x2="1365.8" y2="206.5"/>
<polygon fill="none" stroke="#42464C" stroke-miterlimit="10" points="1320.3,61.5 1320.3,79.5 1379.3,79.5 1379.3,196.5 
	1419.3,196.5 1419.3,61.5 "/>
<g display="none">
	
		<text transform="matrix(1 0 0 1 723.1632 210.3597)" display="inline" fill="#FFFFFF" font-family="'MicrosoftYaHei-Bold'" font-size="52">未来的游戏开发工具</text>
	
		<text transform="matrix(1 0 0 1 840.632 233.3597)" display="inline" fill="#FFFFFF" font-family="'MicrosoftYaHei'" font-size="12">The future of game development engine</text>
</g>
<g display="none">
	<path display="inline" fill="none" stroke="#FF826D" stroke-miterlimit="10" d="M1052.3,381.5c0,0.6-0.4,1-1,1h-180
		c-0.6,0-1-0.4-1-1v-46c0-0.6,0.4-1,1-1h180c0.6,0,1,0.4,1,1V381.5z"/>
	
		<text transform="matrix(1 0 0 1 933.9994 364.0357)" display="inline" fill="#FF826D" font-family="'MicrosoftYaHei'" font-size="14">免费试用</text>
</g>
<circle fill="none" stroke="#42464C" stroke-miterlimit="10" stroke-dasharray="6,8,6,8,6,8" cx="405.5" cy="381.7" r="57.6"/>
<line fill="none" stroke="#42464C" stroke-miterlimit="10" stroke-dasharray="6,8,6,8,6,8" x1="445.9" y1="421.8" x2="520.2" y2="483"/>
<line fill="none" stroke="#42464C" stroke-miterlimit="10" x1="380.3" y1="346" x2="380.3" y2="416"/>
<line fill="none" stroke="#42464C" stroke-miterlimit="10" x1="445.8" y1="407.5" x2="370.8" y2="407.5"/>
<rect x="390.3" y="380.5" fill="none" stroke="#42464C" stroke-miterlimit="10" width="10" height="27"/>
<rect x="424.3" y="394.5" fill="none" stroke="#42464C" stroke-miterlimit="10" width="10" height="13"/>
<rect x="407.3" y="358.5" fill="none" stroke="#42464C" stroke-miterlimit="10" width="10" height="49"/>
<circle fill="none" stroke="#42464C" stroke-miterlimit="10" stroke-dasharray="6,8,6,8,6,8" cx="1614.8" cy="329.9" r="53.2"/>
<line fill="none" stroke="#42464C" stroke-miterlimit="10" stroke-dasharray="6,8,6,8,6,8" x1="1449.8" y1="226.9" x2="1567.2" y2="303.7"/>
<path fill="none" stroke="#42464C" stroke-miterlimit="10" d="M1652.3,351.8c0,0.9-0.7,1.7-1.7,1.7H1581c-0.9,0-1.7-0.7-1.7-1.7
	v-39.7c0-0.9,0.7-1.7,1.7-1.7h69.7c0.9,0,1.7,0.7,1.7,1.7V351.8z"/>
<circle fill="none" stroke="#42464C" stroke-miterlimit="10" cx="1639.5" cy="322.3" r="5.6"/>
<polyline fill="none" stroke="#42464C" stroke-miterlimit="10" points="1579.6,344.8 1607.6,327.9 1651.9,344.8 "/>
</svg>
